# xmcd
#
# Track frame offsets: 
#        150
#        11306
#        24449
#        31881
#        49939
#        63494
#        77959
#        91920
#        105762
#        113550
#        130708
#        143138
#        168483
#        173403
#
# Disc length: 2443 seconds
#
# Revision: 0
# Processed by: cddbd v1.5.2PL0 Copyright (c) Steve Scherf et al.
# Submitted via: ExactAudioCopy v1.0b3
#
DISCID=9e09890e
DTITLE=Women in Blues (Rita Engedalen and Margit Bakken) - Broken Soul B
DTITLE=lues
DYEAR=2012
DGENRE=Blues
TTITLE0=Minnie's Lonesome Song
TTITLE1=They're Still Passing Through
TTITLE2=Come Home
TTITLE3=What Good Can Drinkin' Do
TTITLE4=Another Empty Kitchen
TTITLE5=Nobody Knows You When You're Down And Out
TTITLE6=This Train
TTITLE7=Can't No Grave Hold My Body Down
TTITLE8=Get Right Church
TTITLE9=Libba
TTITLE10=Lord Help The Poor And Needy
TTITLE11=The Right To Say No
TTITLE12=Amazing Grace
TTITLE13=Jesus Lifted Me
EXTD=
EXTT0=
EXTT1=
EXTT2=
EXTT3=
EXTT4=
EXTT5=
EXTT6=
EXTT7=
EXTT8=
EXTT9=
EXTT10=
EXTT11=
EXTT12=
EXTT13=
PLAYORDER=
